<svg width="16" height="16" viewBox="0 0 16 16" fill="none" xmlns="http://www.w3.org/2000/svg">
<path fill-rule="evenodd" clip-rule="evenodd" d="M12.6667 5.99998C12.6667 7.58581 11.8757 8.98689 10.6667 9.83019V14.6666H8.94279L7.99998 13.7238L7.05717 14.6666H5.33333V9.83019C4.12434 8.98689 3.33333 7.58581 3.33333 5.99998C3.33333 3.42265 5.42267 1.33331 8 1.33331C10.5773 1.33331 12.6667 3.42265 12.6667 5.99998ZM11.3333 5.99998C11.3333 7.84093 9.84095 9.33331 8 9.33331C6.15905 9.33331 4.66667 7.84093 4.66667 5.99998C4.66667 4.15903 6.15905 2.66665 8 2.66665C9.84095 2.66665 11.3333 4.15903 11.3333 5.99998ZM6.66667 13.1715L7.99998 11.8382L9.33333 13.1716V10.4734C8.91086 10.5991 8.46332 10.6666 8 10.6666C7.53669 10.6666 7.08914 10.5991 6.66667 10.4734V13.1715Z" fill="black"/>
</svg>
