<svg width="16" height="16" viewBox="0 0 16 16" fill="none" xmlns="http://www.w3.org/2000/svg">
<g clip-path="url(#clip0_151_3156)">
<path d="M8 0.666656C6.5496 0.666656 5.13178 1.09675 3.92582 1.90255C2.71986 2.70834 1.77993 3.85365 1.22488 5.19364C0.669842 6.53364 0.524617 8.00812 0.807575 9.43065C1.09053 10.8532 1.78897 12.1599 2.81455 13.1854C3.84014 14.211 5.14681 14.9095 6.56934 15.1924C7.99187 15.4754 9.46636 15.3301 10.8063 14.7751C12.1463 14.2201 13.2916 13.2801 14.0974 12.0742C14.9032 10.8682 15.3333 9.45039 15.3333 7.99999C15.331 6.05577 14.5577 4.19184 13.1829 2.81707C11.8081 1.4423 9.94422 0.66895 8 0.666656ZM8 14C6.81331 14 5.65327 13.6481 4.66658 12.9888C3.67988 12.3295 2.91085 11.3924 2.45672 10.2961C2.0026 9.19973 1.88378 7.99333 2.11529 6.82945C2.3468 5.66556 2.91824 4.59646 3.75736 3.75735C4.59647 2.91823 5.66557 2.34679 6.82946 2.11528C7.99335 1.88377 9.19975 2.00259 10.2961 2.45671C11.3925 2.91084 12.3295 3.67987 12.9888 4.66657C13.6481 5.65326 14 6.8133 14 7.99999C13.9982 9.59075 13.3655 11.1158 12.2407 12.2407C11.1159 13.3655 9.59076 13.9982 8 14ZM11.138 5.80466L5.80467 11.138C5.74317 11.2017 5.66961 11.2524 5.58827 11.2874C5.50693 11.3223 5.41945 11.3407 5.33094 11.3415C5.24242 11.3423 5.15463 11.3254 5.0727 11.2919C4.99077 11.2584 4.91633 11.2088 4.85374 11.1463C4.79114 11.0837 4.74164 11.0092 4.70812 10.9273C4.6746 10.8454 4.65773 10.7576 4.6585 10.6691C4.65927 10.5805 4.67766 10.4931 4.7126 10.4117C4.74754 10.3304 4.79833 10.2568 4.862 10.1953L10.1953 4.86199C10.2568 4.79832 10.3304 4.74753 10.4117 4.71259C10.4931 4.67765 10.5805 4.65926 10.6691 4.65849C10.7576 4.65772 10.8454 4.67459 10.9273 4.70811C11.0092 4.74163 11.0837 4.79113 11.1463 4.85373C11.2089 4.91632 11.2584 4.99076 11.2919 5.07269C11.3254 5.15462 11.3423 5.2424 11.3415 5.33092C11.3407 5.41944 11.3223 5.50692 11.2874 5.58826C11.2525 5.6696 11.2017 5.74316 11.138 5.80466ZM4.33333 5.66666C4.33333 5.40295 4.41153 5.14516 4.55804 4.9259C4.70455 4.70663 4.91279 4.53573 5.15642 4.43482C5.40006 4.3339 5.66815 4.3075 5.92679 4.35894C6.18543 4.41039 6.42301 4.53738 6.60948 4.72385C6.79595 4.91032 6.92293 5.14789 6.97438 5.40654C7.02583 5.66518 6.99942 5.93327 6.89851 6.1769C6.79759 6.42054 6.62669 6.62877 6.40743 6.77528C6.18816 6.92179 5.93038 6.99999 5.66667 6.99999C5.31305 6.99999 4.97391 6.85951 4.72386 6.60947C4.47381 6.35942 4.33333 6.02028 4.33333 5.66666ZM11.6667 10.3333C11.6667 10.597 11.5885 10.8548 11.442 11.0741C11.2955 11.2933 11.0872 11.4642 10.8436 11.5652C10.5999 11.6661 10.3319 11.6925 10.0732 11.641C9.81457 11.5896 9.577 11.4626 9.39053 11.2761C9.20406 11.0897 9.07707 10.8521 9.02562 10.5934C8.97417 10.3348 9.00058 10.0667 9.10149 9.82308C9.20241 9.57944 9.37331 9.37121 9.59257 9.2247C9.81184 9.07819 10.0696 8.99999 10.3333 8.99999C10.687 8.99999 11.0261 9.14047 11.2761 9.39051C11.5262 9.64056 11.6667 9.9797 11.6667 10.3333Z" fill="url(#paint0_linear_151_3156)"/>
</g>
<defs>
<linearGradient id="paint0_linear_151_3156" x1="8" y1="0.666656" x2="8" y2="15.3333" gradientUnits="userSpaceOnUse">
<stop stop-color="#406AFF"/>
<stop offset="1" stop-color="#083AED"/>
</linearGradient>
<clipPath id="clip0_151_3156">
<rect width="16" height="16" fill="white"/>
</clipPath>
</defs>
</svg>
