<svg width="25" height="24" viewBox="0 0 25 24" fill="none" xmlns="http://www.w3.org/2000/svg">
<g clip-path="url(#clip0_2_8405)">
<path d="M4.5 9C4.5 8.44772 4.94772 8 5.5 8H9.5C10.0523 8 10.5 8.44772 10.5 9C10.5 9.55228 10.0523 10 9.5 10H5.5C4.94772 10 4.5 9.55228 4.5 9Z" fill="#616264"/>
<path fill-rule="evenodd" clip-rule="evenodd" d="M4.5 3C2.29086 3 0.5 4.79086 0.5 7V17C0.5 19.2091 2.29086 21 4.5 21H20.5C22.7091 21 24.5 19.2091 24.5 17V7C24.5 4.79086 22.7091 3 20.5 3H4.5ZM20.5 5H4.5C3.39543 5 2.5 5.89543 2.5 7V14H22.5V7C22.5 5.89543 21.6046 5 20.5 5ZM22.5 16H2.5V17C2.5 18.1046 3.39543 19 4.5 19H20.5C21.6046 19 22.5 18.1046 22.5 17V16Z" fill="#616264"/>
</g>
<defs>
<clipPath id="clip0_2_8405">
<rect width="24" height="24" fill="white" transform="translate(0.5)"/>
</clipPath>
</defs>
</svg>
