<svg width="21" height="20" viewBox="0 0 21 20" fill="none" xmlns="http://www.w3.org/2000/svg">
<path fill-rule="evenodd" clip-rule="evenodd" d="M4.42364 12.8665C5.43888 13.5773 6.60186 13.9198 7.75387 13.9219C8.14983 15.0037 8.86942 15.9794 9.88466 16.6903C12.5237 18.5382 16.161 17.8968 18.0089 15.2578C19.8568 12.6188 19.2154 8.98141 16.5764 7.13354C15.5611 6.42267 14.3982 6.08018 13.2462 6.0781C12.8502 4.99628 12.1306 4.02057 11.1154 3.30969C8.47634 1.46182 4.83898 2.10318 2.99112 4.74221C1.14325 7.38124 1.78461 11.0186 4.42364 12.8665ZM5.3796 11.5012C6.00136 11.9366 6.70069 12.1785 7.40615 12.2396C7.33429 10.9771 7.67055 9.68228 8.45213 8.56606C9.23372 7.44985 10.3354 6.69101 11.5464 6.32675C11.2477 5.68472 10.7812 5.1103 10.1594 4.67494C8.27438 3.35504 5.67628 3.81315 4.35637 5.69817C3.03646 7.5832 3.49458 10.1813 5.3796 11.5012ZM15.6204 8.49879C14.9987 8.06344 14.2993 7.82152 13.5939 7.76044C13.6657 9.02291 13.3295 10.3177 12.5479 11.4339C11.7663 12.5502 10.6646 13.309 9.45367 13.6733C9.75235 14.3153 10.2189 14.8897 10.8406 15.3251C12.7256 16.645 15.3237 16.1869 16.6437 14.3018C17.9636 12.4168 17.5054 9.8187 15.6204 8.49879Z" fill="#121417"/>
</svg>
