<svg width="40" height="40" viewBox="0 0 40 40" fill="none" xmlns="http://www.w3.org/2000/svg">
<path d="M20 18.3333C21.6482 18.3333 23.2593 17.8446 24.6298 16.9289C26.0002 16.0132 27.0683 14.7117 27.699 13.189C28.3297 11.6663 28.4948 9.99072 28.1732 8.37421C27.8517 6.7577 27.058 5.27284 25.8926 4.10741C24.7271 2.94197 23.2423 2.1483 21.6258 1.82675C20.0092 1.50521 18.3337 1.67024 16.811 2.30097C15.2883 2.9317 13.9868 3.9998 13.0711 5.37021C12.1554 6.74062 11.6667 8.35179 11.6667 9.99996C11.6693 12.2093 12.5481 14.3274 14.1104 15.8896C15.6726 17.4518 17.7907 18.3306 20 18.3333ZM20 4.99996C20.9889 4.99996 21.9556 5.29321 22.7779 5.84261C23.6001 6.39202 24.241 7.17291 24.6194 8.08655C24.9978 9.00018 25.0969 10.0055 24.9039 10.9754C24.711 11.9453 24.2348 12.8362 23.5355 13.5355C22.8363 14.2348 21.9454 14.711 20.9755 14.9039C20.0055 15.0968 19.0002 14.9978 18.0866 14.6194C17.173 14.2409 16.3921 13.6001 15.8427 12.7778C15.2932 11.9556 15 10.9889 15 9.99996C15 8.67388 15.5268 7.40211 16.4645 6.46443C17.4021 5.52675 18.6739 4.99996 20 4.99996ZM6.66667 38.3333H33.3333C33.7754 38.3333 34.1993 38.1577 34.5118 37.8451C34.8244 37.5326 35 37.1087 35 36.6666C35 32.6884 33.4196 28.8731 30.6066 26.06C27.7936 23.247 23.9782 21.6666 20 21.6666C16.0218 21.6666 12.2064 23.247 9.3934 26.06C6.58035 28.8731 5 32.6884 5 36.6666C5 37.1087 5.17559 37.5326 5.48816 37.8451C5.80072 38.1577 6.22464 38.3333 6.66667 38.3333ZM20 25C22.8046 25.0035 25.5144 26.0156 27.6346 27.8515C29.7548 29.6874 31.1439 32.2247 31.5483 35H8.45167C8.85609 32.2247 10.2452 29.6874 12.3654 27.8515C14.4856 26.0156 17.1954 25.0035 20 25Z" fill="#FDFEFE"/>
</svg>
