<svg width="40" height="40" viewBox="0 0 40 40" fill="none" xmlns="http://www.w3.org/2000/svg">
<path d="M32.8834 27.7716C33.7082 26.7506 34.1608 25.4792 34.1667 24.1666C34.1667 22.6195 33.5522 21.1358 32.4582 20.0418C31.3642 18.9479 29.8805 18.3333 28.3334 18.3333C26.7863 18.3333 25.3026 18.9479 24.2086 20.0418C23.1147 21.1358 22.5001 22.6195 22.5001 24.1666C22.506 25.4792 22.9586 26.7506 23.7834 27.7716C22.2546 28.5564 20.9522 29.7194 20.0001 31.15C19.048 29.7194 17.7455 28.5564 16.2167 27.7716C17.0415 26.7506 17.4942 25.4792 17.5001 24.1666C17.5001 22.6195 16.8855 21.1358 15.7915 20.0418C14.6976 18.9479 13.2138 18.3333 11.6667 18.3333C10.1197 18.3333 8.63592 18.9479 7.54196 20.0418C6.448 21.1358 5.83341 22.6195 5.83341 24.1666C5.83934 25.4792 6.29194 26.7506 7.11675 27.7716C5.4777 28.6091 4.10158 29.8827 3.13997 31.4522C2.17836 33.0216 1.66857 34.826 1.66675 36.6666C1.66675 37.1087 1.84234 37.5326 2.1549 37.8451C2.46746 38.1577 2.89139 38.3333 3.33341 38.3333H36.6667C37.1088 38.3333 37.5327 38.1577 37.8453 37.8451C38.1578 37.5326 38.3334 37.1087 38.3334 36.6666C38.3316 34.826 37.8218 33.0216 36.8602 31.4522C35.8986 29.8827 34.5225 28.6091 32.8834 27.7716ZM11.6667 21.6666C12.1612 21.6666 12.6445 21.8132 13.0557 22.0879C13.4668 22.3627 13.7872 22.7531 13.9764 23.2099C14.1657 23.6667 14.2152 24.1694 14.1187 24.6544C14.0222 25.1393 13.7841 25.5848 13.4345 25.9344C13.0849 26.284 12.6394 26.5221 12.1545 26.6186C11.6695 26.715 11.1669 26.6655 10.71 26.4763C10.2532 26.2871 9.86278 25.9667 9.58807 25.5555C9.31337 25.1444 9.16675 24.6611 9.16675 24.1666C9.16675 23.5036 9.43014 22.8677 9.89898 22.3989C10.3678 21.93 11.0037 21.6666 11.6667 21.6666ZM5.21008 35C5.57841 33.5674 6.41268 32.298 7.58158 31.3917C8.75048 30.4853 10.1876 29.9934 11.6667 29.9934C13.1459 29.9934 14.583 30.4853 15.7519 31.3917C16.9208 32.298 17.7551 33.5674 18.1234 35H5.21008ZM28.3334 21.6666C28.8279 21.6666 29.3112 21.8132 29.7223 22.0879C30.1335 22.3627 30.4539 22.7531 30.6431 23.2099C30.8323 23.6667 30.8818 24.1694 30.7854 24.6544C30.6889 25.1393 30.4508 25.5848 30.1012 25.9344C29.7515 26.284 29.3061 26.5221 28.8211 26.6186C28.3362 26.715 27.8335 26.6655 27.3767 26.4763C26.9199 26.2871 26.5294 25.9667 26.2547 25.5555C25.98 25.1444 25.8334 24.6611 25.8334 24.1666C25.8334 23.5036 26.0968 22.8677 26.5656 22.3989C27.0345 21.93 27.6704 21.6666 28.3334 21.6666ZM21.8784 35C22.2479 33.5689 23.0824 32.3012 24.2509 31.3961C25.4193 30.491 26.8554 29.9998 28.3334 29.9998C29.8114 29.9998 31.2475 30.491 32.4159 31.3961C33.5844 32.3012 34.4189 33.5689 34.7884 35H21.8784ZM12.0001 14C11.7349 14.3536 11.621 14.7981 11.6835 15.2357C11.746 15.6732 11.9798 16.0681 12.3334 16.3333C12.687 16.5985 13.1315 16.7124 13.5691 16.6499C14.0067 16.5874 14.4015 16.3536 14.6667 16C15.2877 15.172 16.093 14.5 17.0187 14.0371C17.9444 13.5743 18.9651 13.3333 20.0001 13.3333C21.035 13.3333 22.0558 13.5743 22.9815 14.0371C23.9072 14.5 24.7124 15.172 25.3334 16C25.4647 16.1751 25.6293 16.3226 25.8176 16.4341C26.0059 16.5456 26.2144 16.6189 26.431 16.6499C26.6477 16.6808 26.8684 16.6688 27.0804 16.6145C27.2924 16.5602 27.4916 16.4646 27.6667 16.3333C27.8418 16.202 27.9894 16.0374 28.1009 15.8491C28.2124 15.6608 28.2857 15.4523 28.3167 15.2357C28.3476 15.019 28.3356 14.7983 28.2813 14.5863C28.2269 14.3743 28.1314 14.1751 28.0001 14C27.0885 12.7831 25.9114 11.7902 24.5584 11.0966C25.3788 10.0769 25.8284 8.80871 25.8334 7.49996C25.8334 5.95286 25.2188 4.46913 24.1249 3.37517C23.0309 2.28121 21.5472 1.66663 20.0001 1.66663C18.453 1.66663 16.9693 2.28121 15.8753 3.37517C14.7813 4.46913 14.1667 5.95286 14.1667 7.49996C14.1722 8.80814 14.6217 10.0757 15.4417 11.095C14.0884 11.7887 12.9112 12.7823 12.0001 14ZM20.0001 4.99996C20.4945 4.99996 20.9779 5.14658 21.389 5.42129C21.8001 5.69599 22.1206 6.08643 22.3098 6.54325C22.499 7.00007 22.5485 7.50273 22.452 7.98768C22.3556 8.47264 22.1175 8.91809 21.7678 9.26773C21.4182 9.61736 20.9728 9.85546 20.4878 9.95192C20.0029 10.0484 19.5002 9.99888 19.0434 9.80966C18.5866 9.62044 18.1961 9.30001 17.9214 8.88888C17.6467 8.47776 17.5001 7.99441 17.5001 7.49996C17.5001 6.83692 17.7635 6.20103 18.2323 5.73219C18.7012 5.26335 19.337 4.99996 20.0001 4.99996Z" fill="url(#paint0_linear_2_6832)"/>
<defs>
<linearGradient id="paint0_linear_2_6832" x1="20.0001" y1="1.66663" x2="20.0001" y2="38.3333" gradientUnits="userSpaceOnUse">
<stop stop-color="#406AFF"/>
<stop offset="1" stop-color="#083AED"/>
</linearGradient>
</defs>
</svg>
