<svg width="16" height="16" viewBox="0 0 16 16" fill="none" xmlns="http://www.w3.org/2000/svg">
<path d="M7.33333 7.31956C7.33333 6.95137 7.63181 6.65289 8 6.65289C8.36819 6.65289 8.66667 6.95137 8.66667 7.31956V11.3196C8.66667 11.6877 8.36819 11.9862 8 11.9862C7.63181 11.9862 7.33333 11.6877 7.33333 11.3196V7.31956Z" fill="#121417"/>
<path d="M8 4.03408C7.63181 4.03408 7.33333 4.33255 7.33333 4.70074C7.33333 5.06893 7.63181 5.36741 8 5.36741C8.36819 5.36741 8.66667 5.06893 8.66667 4.70074C8.66667 4.33255 8.36819 4.03408 8 4.03408Z" fill="#121417"/>
<path fill-rule="evenodd" clip-rule="evenodd" d="M8 1.33331C4.3181 1.33331 1.33333 4.31808 1.33333 7.99998C1.33333 11.6819 4.3181 14.6666 8 14.6666C11.6819 14.6666 14.6667 11.6819 14.6667 7.99998C14.6667 4.31808 11.6819 1.33331 8 1.33331ZM2.66667 7.99998C2.66667 10.9455 5.05448 13.3333 8 13.3333C10.9455 13.3333 13.3333 10.9455 13.3333 7.99998C13.3333 5.05446 10.9455 2.66665 8 2.66665C5.05448 2.66665 2.66667 5.05446 2.66667 7.99998Z" fill="#121417"/>
</svg>
