<svg width="16" height="16" viewBox="0 0 16 16" fill="none" xmlns="http://www.w3.org/2000/svg">
<path d="M2.66667 15.3333H13.3333C13.5101 15.3333 13.6797 15.2631 13.8047 15.1381C13.9298 15.013 14 14.8435 14 14.6667V6.50132C14.07 6.43804 14.1367 6.37129 14.2 6.30132C14.4522 5.98022 14.6273 5.6055 14.7118 5.20603C14.7963 4.80657 14.7879 4.39304 14.6873 3.99732L13.98 1.17199C13.944 1.0277 13.8608 0.899588 13.7436 0.808023C13.6265 0.716457 13.482 0.666698 13.3333 0.666656H2.66667C2.51796 0.666698 2.37353 0.716457 2.25636 0.808023C2.13918 0.899588 2.05599 1.0277 2.02 1.17199L1.31467 3.99599C1.21381 4.39156 1.20513 4.805 1.28927 5.20446C1.37342 5.60391 1.54815 5.97872 1.8 6.29999C1.86328 6.36996 1.93003 6.43671 2 6.49999V14.6667C2 14.8435 2.07024 15.013 2.19526 15.1381C2.32029 15.2631 2.48985 15.3333 2.66667 15.3333ZM8.66667 14H7.33333V10.6667H8.66667V14ZM12.8127 1.99999L13.3927 4.31932C13.4425 4.51877 13.4462 4.72696 13.4036 4.92807C13.3609 5.12918 13.273 5.31792 13.1464 5.47994C13.0199 5.64197 12.858 5.77302 12.6733 5.86313C12.4885 5.95324 12.2856 6.00005 12.08 5.99999C11.7415 5.99784 11.416 5.8696 11.167 5.64031C10.918 5.41102 10.7633 5.09715 10.7333 4.75999L10.5027 1.99999H12.8127ZM6.83533 1.99999H9.16466L9.37533 4.53332C9.39111 4.71991 9.36798 4.90775 9.3074 5.08493C9.24682 5.26212 9.15011 5.42479 9.0234 5.56266C8.89668 5.70053 8.74272 5.81059 8.57127 5.88587C8.39981 5.96115 8.21459 6.00001 8.02733 5.99999H7.97266C7.78541 6.00001 7.60019 5.96115 7.42873 5.88587C7.25727 5.81059 7.10331 5.70053 6.9766 5.56266C6.84988 5.42479 6.75318 5.26212 6.6926 5.08493C6.63202 4.90775 6.60888 4.71991 6.62467 4.53332L6.83533 1.99999ZM5.996 6.46666C6.24788 6.73964 6.55352 6.95755 6.8937 7.1067C7.23387 7.25585 7.60123 7.33301 7.97266 7.33332H8.02733C8.39877 7.33301 8.76612 7.25585 9.1063 7.1067C9.44647 6.95755 9.75211 6.73964 10.004 6.46666C10.0247 6.44399 10.0387 6.41599 10.0587 6.39332C10.3709 6.76479 10.7796 7.04289 11.2398 7.19698C11.6999 7.35107 12.1937 7.37518 12.6667 7.26666V14H10V9.99999C10 9.82318 9.92976 9.65361 9.80474 9.52858C9.67971 9.40356 9.51014 9.33332 9.33333 9.33332H6.66667C6.48985 9.33332 6.32029 9.40356 6.19526 9.52858C6.07024 9.65361 6 9.82318 6 9.99999V14H3.33333V7.26666C3.80637 7.3751 4.30017 7.35089 4.76033 7.19668C5.22049 7.04247 5.62916 6.76425 5.94133 6.39266C5.96133 6.41532 5.97533 6.44332 5.996 6.46666ZM2.60733 4.31932L3.18733 1.99999H5.49733L5.26667 4.75999C5.23665 5.09715 5.08205 5.41102 4.83303 5.64031C4.58402 5.8696 4.25849 5.99784 3.92 5.99999C3.71441 6.00005 3.51152 5.95324 3.32673 5.86313C3.14195 5.77302 2.98013 5.64197 2.85359 5.47994C2.72704 5.31792 2.63909 5.12918 2.59642 4.92807C2.55375 4.72696 2.55748 4.51877 2.60733 4.31932Z" fill="#121417"/>
</svg>
