<svg width="21" height="21" viewBox="0 0 21 21" fill="none" xmlns="http://www.w3.org/2000/svg">
<path d="M18.5892 3.84534L16.7709 2.02701C16.6146 1.87078 16.4027 1.78302 16.1817 1.78302C15.9607 1.78302 15.7488 1.87078 15.5925 2.02701L8.32002 9.30034C8.22825 9.39121 8.15941 9.50261 8.11919 9.62534L7.21002 12.3528C7.16832 12.4781 7.15695 12.6114 7.17685 12.7418C7.19675 12.8723 7.24735 12.9962 7.32449 13.1033C7.40163 13.2103 7.5031 13.2976 7.62054 13.3578C7.73799 13.418 7.86805 13.4494 8.00002 13.4495C8.08957 13.4495 8.17852 13.4349 8.26335 13.4062L10.9909 12.497C11.1136 12.4568 11.225 12.3879 11.3159 12.2962L18.5892 5.02368C18.7454 4.8674 18.8332 4.65548 18.8332 4.43451C18.8332 4.21354 18.7454 4.00162 18.5892 3.84534ZM10.2767 10.9787L9.31752 11.2987L9.63752 10.3395L16.1817 3.79451L16.8217 4.43451L10.2767 10.9787ZM2.16669 5.11618C2.16669 4.89516 2.25448 4.6832 2.41076 4.52692C2.56704 4.37064 2.77901 4.28284 3.00002 4.28284H9.66669C9.8877 4.28284 10.0997 4.37064 10.2559 4.52692C10.4122 4.6832 10.5 4.89516 10.5 5.11618C10.5 5.33719 10.4122 5.54915 10.2559 5.70543C10.0997 5.86171 9.8877 5.94951 9.66669 5.94951H3.83335V16.7828H14.6667V10.9495C14.6667 10.7285 14.7545 10.5165 14.9108 10.3603C15.067 10.204 15.279 10.1162 15.5 10.1162C15.721 10.1162 15.933 10.204 16.0893 10.3603C16.2456 10.5165 16.3334 10.7285 16.3334 10.9495V17.6162C16.3334 17.8372 16.2456 18.0492 16.0893 18.2054C15.933 18.3617 15.721 18.4495 15.5 18.4495H3.00002C2.77901 18.4495 2.56704 18.3617 2.41076 18.2054C2.25448 18.0492 2.16669 17.8372 2.16669 17.6162V5.11618Z" fill="#0547AB" fill-opacity="0.7"/>
</svg>
