<svg width="20" height="21" viewBox="0 0 20 21" fill="none" xmlns="http://www.w3.org/2000/svg">
<path d="M18.0892 3.84534L16.2708 2.02701C16.1146 1.87078 15.9026 1.78302 15.6817 1.78302C15.4607 1.78302 15.2488 1.87078 15.0925 2.02701L7.82 9.30034C7.72823 9.39121 7.65939 9.50261 7.61917 9.62534L6.71001 12.3528C6.6683 12.4781 6.65693 12.6114 6.67683 12.7418C6.69674 12.8723 6.74734 12.9962 6.82448 13.1033C6.90161 13.2103 7.00308 13.2976 7.12053 13.3578C7.23797 13.418 7.36803 13.4494 7.5 13.4495C7.58956 13.4495 7.6785 13.4349 7.76334 13.4062L10.4908 12.497C10.6136 12.4568 10.725 12.3879 10.8158 12.2962L18.0892 5.02368C18.2454 4.8674 18.3332 4.65548 18.3332 4.43451C18.3332 4.21354 18.2454 4.00161 18.0892 3.84534ZM9.77667 10.9787L8.81751 11.2987L9.13751 10.3395L15.6817 3.79451L16.3217 4.43451L9.77667 10.9787ZM1.66667 5.11618C1.66667 4.89516 1.75447 4.6832 1.91075 4.52692C2.06703 4.37064 2.27899 4.28284 2.50001 4.28284H9.16667C9.38769 4.28284 9.59965 4.37064 9.75593 4.52692C9.91221 4.6832 10 4.89516 10 5.11618C10 5.33719 9.91221 5.54915 9.75593 5.70543C9.59965 5.86171 9.38769 5.94951 9.16667 5.94951H3.33334V16.7828H14.1667V10.9495C14.1667 10.7285 14.2545 10.5165 14.4107 10.3603C14.567 10.204 14.779 10.1162 15 10.1162C15.221 10.1162 15.433 10.204 15.5893 10.3603C15.7455 10.5165 15.8333 10.7285 15.8333 10.9495V17.6162C15.8333 17.8372 15.7455 18.0492 15.5893 18.2054C15.433 18.3617 15.221 18.4495 15 18.4495H2.50001C2.27899 18.4495 2.06703 18.3617 1.91075 18.2054C1.75447 18.0492 1.66667 17.8372 1.66667 17.6162V5.11618Z" fill="#0520AB" fill-opacity="0.7"/>
</svg>
