<svg width="24" height="24" viewBox="0 0 24 24" fill="none" xmlns="http://www.w3.org/2000/svg">
<path d="M4.00001 23H20C20.2652 23 20.5196 22.8946 20.7071 22.7071C20.8947 22.5196 21 22.2652 21 22V9.752C21.105 9.65707 21.2051 9.55695 21.3 9.452C21.6783 8.97035 21.9409 8.40826 22.0677 7.80907C22.1944 7.20987 22.1819 6.58958 22.031 5.996L20.97 1.758C20.916 1.54157 20.7912 1.3494 20.6155 1.21205C20.4397 1.0747 20.2231 1.00006 20 1H4.00001C3.77695 1.00006 3.56031 1.0747 3.38455 1.21205C3.20879 1.3494 3.08399 1.54157 3.03001 1.758L1.97201 5.994C1.82073 6.58735 1.8077 7.20752 1.93392 7.8067C2.06014 8.40588 2.32223 8.96809 2.70001 9.45C2.79494 9.55495 2.89506 9.65508 3.00001 9.75V22C3.00001 22.2652 3.10537 22.5196 3.29291 22.7071C3.48044 22.8946 3.7348 23 4.00001 23ZM13 21H11V16H13V21ZM19.219 3L20.089 6.479C20.1638 6.77818 20.1694 7.09046 20.1054 7.39213C20.0414 7.69379 19.9095 7.9769 19.7196 8.21993C19.5298 8.46297 19.2871 8.65954 19.0099 8.79471C18.7327 8.92987 18.4284 9.00008 18.12 9C17.6123 8.99678 17.124 8.80442 16.7505 8.46048C16.3769 8.11655 16.145 7.64574 16.1 7.14L15.754 3H19.219ZM10.253 3H13.747L14.063 6.8C14.0867 7.07988 14.052 7.36163 13.9611 7.62741C13.8702 7.89319 13.7252 8.13721 13.5351 8.34401C13.345 8.55082 13.1141 8.7159 12.8569 8.82882C12.5997 8.94174 12.3219 9.00003 12.041 9H11.959C11.6781 9.00003 11.4003 8.94174 11.1431 8.82882C10.8859 8.7159 10.655 8.55082 10.4649 8.34401C10.2748 8.13721 10.1298 7.89319 10.0389 7.62741C9.94804 7.36163 9.91334 7.07988 9.93701 6.8L10.253 3ZM8.99401 9.7C9.37184 10.1095 9.8303 10.4363 10.3406 10.6601C10.8508 10.8838 11.4019 10.9995 11.959 11H12.041C12.5982 10.9995 13.1492 10.8838 13.6595 10.6601C14.1697 10.4363 14.6282 10.1095 15.006 9.7C15.037 9.666 15.058 9.624 15.088 9.59C15.5564 10.1472 16.1694 10.5643 16.8597 10.7955C17.5499 11.0266 18.2905 11.0628 19 10.9V21H15V15C15 14.7348 14.8947 14.4804 14.7071 14.2929C14.5196 14.1054 14.2652 14 14 14H10C9.7348 14 9.48044 14.1054 9.29291 14.2929C9.10537 14.4804 9.00001 14.7348 9.00001 15V21H5.00001V10.9C5.70957 11.0627 6.45027 11.0263 7.14051 10.795C7.83075 10.5637 8.44376 10.1464 8.91201 9.589C8.94201 9.623 8.96301 9.665 8.99401 9.7ZM3.91101 6.479L4.78101 3H8.24601L7.90001 7.14C7.85499 7.64574 7.62308 8.11655 7.24957 8.46048C6.87605 8.80442 6.38775 8.99678 5.88001 9C5.57163 9.00008 5.26729 8.92987 4.99011 8.79471C4.71293 8.65954 4.47021 8.46297 4.28039 8.21993C4.09057 7.9769 3.95865 7.69379 3.89464 7.39213C3.83064 7.09046 3.83623 6.77818 3.91101 6.479Z" fill="#616264"/>
</svg>
