<svg width="16" height="16" viewBox="0 0 16 16" fill="none" xmlns="http://www.w3.org/2000/svg">
<path fill-rule="evenodd" clip-rule="evenodd" d="M12 7C13.1046 7 14 7.89543 14 9V13C14 14.1046 13.1046 15 12 15H4C2.89543 15 2 14.1046 2 13V9C2 7.89543 2.89543 7 4 7V5C4 2.79086 5.79086 1 8 1C10.2091 1 12 2.79086 12 5V7ZM8 2.33333C9.47276 2.33333 10.6667 3.52724 10.6667 5V7H5.33333V5C5.33333 3.52724 6.52724 2.33333 8 2.33333ZM12 8.33333H4C3.63181 8.33333 3.33333 8.63181 3.33333 9V13C3.33333 13.3682 3.63181 13.6667 4 13.6667H12C12.3682 13.6667 12.6667 13.3682 12.6667 13V9C12.6667 8.63181 12.3682 8.33333 12 8.33333Z" fill="#121417"/>
</svg>
