<svg width="20" height="20" viewBox="0 0 20 20" fill="none" xmlns="http://www.w3.org/2000/svg">
<path fill-rule="evenodd" clip-rule="evenodd" d="M15.8334 3.33335H4.16671C3.70647 3.33335 3.33337 3.70645 3.33337 4.16669V15.8334C3.33337 16.2936 3.70647 16.6667 4.16671 16.6667H15.8334C16.2936 16.6667 16.6667 16.2936 16.6667 15.8334V4.16669C16.6667 3.70645 16.2936 3.33335 15.8334 3.33335ZM18.3334 4.16669C18.3334 2.78597 17.2141 1.66669 15.8334 1.66669H4.16671C2.78599 1.66669 1.66671 2.78598 1.66671 4.16669V15.8334C1.66671 17.2141 2.78599 18.3334 4.16671 18.3334H15.8334C17.2141 18.3334 18.3334 17.2141 18.3334 15.8334V4.16669ZM10 10C12.3012 10 14.1667 7.76144 14.1667 5.00002H12.5C12.5 7.1384 11.1091 8.33335 10 8.33335C8.89095 8.33335 7.50004 7.1384 7.50004 5.00002H5.83337C5.83337 7.76144 7.69885 10 10 10Z" fill="#00BA88"/>
</svg>
