<svg width="20" height="20" viewBox="0 0 20 20" fill="none" xmlns="http://www.w3.org/2000/svg">
<path fill-rule="evenodd" clip-rule="evenodd" d="M5.83333 4.16669V3.33335C5.83333 2.41288 6.57953 1.66669 7.5 1.66669H12.5C13.4205 1.66669 14.1667 2.41288 14.1667 3.33335V4.16669H16.6667C17.1269 4.16669 17.5 4.53978 17.5 5.00002C17.5 5.46026 17.1269 5.83335 16.6667 5.83335H15.8333V15C15.8333 16.3807 14.714 17.5 13.3333 17.5H6.66667C5.28595 17.5 4.16667 16.3807 4.16667 15V5.83335H3.33333C2.8731 5.83335 2.5 5.46026 2.5 5.00002C2.5 4.53978 2.8731 4.16669 3.33333 4.16669H5.83333ZM7.5 3.33335H12.5V4.16669H7.5V3.33335ZM5.83333 5.83335H14.1667V15C14.1667 15.4603 13.7936 15.8334 13.3333 15.8334H6.66667C6.20643 15.8334 5.83333 15.4603 5.83333 15V5.83335Z" fill="url(#paint0_linear_151_2285)"/>
<path d="M12.5 7.50002H10.8333V14.1667H12.5V7.50002Z" fill="url(#paint1_linear_151_2285)"/>
<path d="M9.16667 7.50002H7.5V14.1667H9.16667V7.50002Z" fill="url(#paint2_linear_151_2285)"/>
<defs>
<linearGradient id="paint0_linear_151_2285" x1="10" y1="1.66669" x2="10" y2="17.5" gradientUnits="userSpaceOnUse">
<stop stop-color="#406AFF"/>
<stop offset="1" stop-color="#083AED"/>
</linearGradient>
<linearGradient id="paint1_linear_151_2285" x1="10" y1="1.66669" x2="10" y2="17.5" gradientUnits="userSpaceOnUse">
<stop stop-color="#406AFF"/>
<stop offset="1" stop-color="#083AED"/>
</linearGradient>
<linearGradient id="paint2_linear_151_2285" x1="10" y1="1.66669" x2="10" y2="17.5" gradientUnits="userSpaceOnUse">
<stop stop-color="#406AFF"/>
<stop offset="1" stop-color="#083AED"/>
</linearGradient>
</defs>
</svg>
